<svg width="27" height="27" viewBox="0 0 27 27" fill="none" xmlns="http://www.w3.org/2000/svg">
<path fill-rule="evenodd" clip-rule="evenodd" d="M19.953 0.456004C20.0583 0.29365 20.2115 0.16491 20.3931 0.0860524C20.5747 0.00719458 20.7766 -0.0182414 20.9733 0.0129589L26.1576 0.842942C26.4212 0.885127 26.6566 1.02599 26.812 1.23459C26.9674 1.44319 27.0301 1.70244 26.9864 1.95539L26.1234 6.93142C26.0904 7.12005 26 7.29508 25.8634 7.43439C25.7268 7.57369 25.5502 7.67103 25.356 7.7141C25.1618 7.75716 24.9586 7.74403 24.7722 7.67634C24.5857 7.60866 24.4244 7.48947 24.3085 7.33384L22.9091 5.45719L15.7023 9.87603C15.3949 10.0647 15.0269 10.1404 14.6659 10.0892C14.305 10.038 13.9755 9.86337 13.7382 9.59743L9.71941 5.08959L2.20405 8.79453C1.84734 8.97053 1.43237 9.00336 1.05042 8.88581C0.668482 8.76825 0.350856 8.50994 0.167419 8.16769C-0.0160169 7.82545 -0.0502371 7.4273 0.072287 7.06085C0.194811 6.6944 0.464043 6.38965 0.820754 6.21365L9.40081 1.98248C9.70373 1.83317 10.0503 1.78632 10.3844 1.84952C10.7186 1.91273 11.0207 2.08227 11.2418 2.33072L15.182 6.7515L21.1508 3.09106L19.9873 1.52976C19.8716 1.37407 19.8066 1.18898 19.8005 0.997866C19.7944 0.806756 19.8474 0.618196 19.953 0.456004ZM6.75319 9.95535L0.901413 13.1669C0.670238 13.2936 0.478018 13.4766 0.344181 13.6974C0.210343 13.9183 0.13963 14.1691 0.139189 14.4245V25.549C0.139189 26.3499 0.816721 27 1.65154 27H6.75319V9.95535ZM9.27378 27H16.6702V13.8209L13.345 15.4151L10.0219 9.8354C9.85406 9.55164 9.59111 9.33071 9.27579 9.20856L9.27378 27ZM24.8409 27H19.1908V12.6117L24.1654 10.2243C24.3959 10.1138 24.6521 10.0618 24.9095 10.073C25.167 10.0842 25.4172 10.1584 25.6363 10.2884C25.8555 10.4185 26.0364 10.6001 26.1619 10.8161C26.2874 11.032 26.3532 11.2752 26.3532 11.5225V25.549C26.3532 25.9338 26.1939 26.3029 25.9103 26.575C25.6267 26.8471 25.242 27 24.8409 27Z" fill="#1B3353"/>
</svg>
