<svg width="18" height="19" viewBox="0 0 18 19" fill="none" xmlns="http://www.w3.org/2000/svg">
<path d="M3.62 8.26559C5.06 11.0956 7.38 13.4056 10.21 14.8556L12.41 12.6556C12.68 12.3856 13.08 12.2956 13.43 12.4156C14.55 12.7856 15.76 12.9856 17 12.9856C17.55 12.9856 18 13.4356 18 13.9856V17.4756C18 18.0256 17.55 18.4756 17 18.4756C7.61 18.4756 0 10.8656 0 1.47559C0 0.925586 0.45 0.475586 1 0.475586H4.5C5.05 0.475586 5.5 0.925586 5.5 1.47559C5.5 2.72559 5.7 3.92559 6.07 5.04559C6.18 5.39559 6.1 5.78559 5.82 6.06559L3.62 8.26559Z" fill="white"/>
</svg>
