<svg width="14" height="13" viewBox="0 0 14 13" fill="none" xmlns="http://www.w3.org/2000/svg">
<path d="M2.93809 1.80951C2.9379 2.16311 2.78293 2.50216 2.5073 2.75207C2.23166 3.00198 1.85793 3.14228 1.46831 3.1421C1.0787 3.14193 0.705116 3.00129 0.429754 2.75113C0.154392 2.50097 -0.000194624 2.16178 1.83896e-07 1.80818C0.000194991 1.45458 0.155156 1.11553 0.430793 0.865617C0.70643 0.615708 1.08016 0.475409 1.46978 0.475586C1.85939 0.475763 2.23298 0.6164 2.50834 0.86656C2.7837 1.11672 2.93829 1.45591 2.93809 1.80951ZM2.98216 4.12938H0.0440715V12.4756H2.98216V4.12938ZM7.62434 4.12938H4.70095V12.4756H7.59496V8.09583C7.59496 5.65597 11.0986 5.42931 11.0986 8.09583V12.4756H14V7.18921C14 3.07611 8.81427 3.22943 7.59496 5.24932L7.62434 4.12938Z" fill="#1B3353"/>
</svg>
