<svg width="14" height="15" viewBox="0 0 14 15" fill="none" xmlns="http://www.w3.org/2000/svg">
<path d="M7.71961 0.475586C8.50707 0.477686 8.90675 0.481886 9.25183 0.491686L9.38762 0.496585C9.54442 0.502185 9.69911 0.509185 9.886 0.517585C10.6308 0.552584 11.1389 0.670181 11.5848 0.843077C12.0468 1.02087 12.436 1.26167 12.8251 1.65016C13.1811 2.00008 13.4565 2.42335 13.6322 2.89053C13.8051 3.33642 13.9227 3.84461 13.9577 4.59009C13.9661 4.77629 13.9731 4.93098 13.9787 5.08848L13.9829 5.22428C13.9934 5.56867 13.9976 5.96836 13.999 6.75584L13.9997 7.27803V8.19501C14.0014 8.70558 13.996 9.21615 13.9836 9.72657L13.9794 9.86237C13.9738 10.0199 13.9668 10.1746 13.9584 10.3608C13.9234 11.1062 13.8044 11.6137 13.6322 12.0603C13.457 12.5277 13.1815 12.9511 12.8251 13.3007C12.4751 13.6565 12.0519 13.9319 11.5848 14.1078C11.1389 14.2807 10.6308 14.3983 9.886 14.4333C9.71991 14.4411 9.55378 14.4481 9.38762 14.4543L9.25183 14.4585C8.90675 14.4683 8.50707 14.4732 7.71961 14.4746L7.19743 14.4753H6.28118C5.77039 14.477 5.2596 14.4717 4.74896 14.4592L4.61317 14.455C4.447 14.4487 4.28088 14.4414 4.11479 14.4333C3.37003 14.3983 2.86186 14.2807 2.41528 14.1078C1.94817 13.9323 1.52508 13.6569 1.17564 13.3007C0.819394 12.9509 0.543733 12.5276 0.367885 12.0603C0.194994 11.6144 0.0773999 11.1062 0.0424017 10.3608C0.0346033 10.1947 0.0276036 10.0285 0.0214028 9.86237L0.0179031 9.72657C0.00500414 9.21615 -0.000829516 8.70558 0.00040388 8.19501V6.75584C-0.0015497 6.24527 0.00358392 5.7347 0.0158031 5.22428L0.0207029 5.08848C0.0263026 4.93098 0.0333022 4.77629 0.0417018 4.59009C0.0767 3.84461 0.194294 3.33712 0.367185 2.89053C0.542956 2.42287 0.819166 1.99947 1.17634 1.65016C1.52569 1.2942 1.9485 1.01876 2.41528 0.843077C2.86186 0.670181 3.36933 0.552584 4.11479 0.517585C4.30098 0.509185 4.45638 0.502185 4.61317 0.496585L4.74896 0.492385C5.25937 0.479949 5.76993 0.474582 6.28048 0.476286L7.71961 0.475586ZM7.00004 3.9755C6.07184 3.9755 5.18164 4.34424 4.5253 5.00061C3.86895 5.65697 3.50022 6.54719 3.50022 7.47542C3.50022 8.40366 3.86895 9.29388 4.5253 9.95024C5.18164 10.6066 6.07184 10.9753 7.00004 10.9753C7.92826 10.9753 8.81845 10.6066 9.47479 9.95024C10.1311 9.29388 10.4999 8.40366 10.4999 7.47542C10.4999 6.54719 10.1311 5.65697 9.47479 5.00061C8.81845 4.34424 7.92826 3.9755 7.00004 3.9755ZM7.00004 5.37547C7.27581 5.37543 7.54888 5.4297 7.80367 5.53519C8.05845 5.64068 8.28997 5.79532 8.485 5.99029C8.68002 6.18525 8.83474 6.41672 8.94031 6.67148C9.04588 6.92624 9.10024 7.1993 9.10029 7.47507C9.10033 7.75084 9.04606 8.02392 8.94058 8.27872C8.83509 8.53351 8.68045 8.76503 8.48549 8.96007C8.29053 9.1551 8.05907 9.30982 7.80431 9.41539C7.54956 9.52097 7.27651 9.57533 7.00075 9.57537C6.44382 9.57537 5.9097 9.35413 5.5159 8.96031C5.12209 8.5665 4.90085 8.03236 4.90085 7.47542C4.90085 6.91848 5.12209 6.38435 5.5159 5.99053C5.9097 5.59672 6.44312 5.37547 7.00004 5.37547ZM10.6756 2.92553C10.4435 2.92553 10.221 3.01771 10.0569 3.1818C9.89278 3.3459 9.8006 3.56845 9.8006 3.80051C9.8006 4.03257 9.89278 4.25512 10.0569 4.41921C10.221 4.5833 10.4435 4.67549 10.6756 4.67549C10.9076 4.67549 11.1302 4.5833 11.2942 4.41921C11.4583 4.25512 11.5505 4.03257 11.5505 3.80051C11.5505 3.56845 11.4583 3.3459 11.2942 3.1818C11.1302 3.01771 10.9076 2.92553 10.6756 2.92553Z" fill="#1B3353"/>
</svg>
