<svg width="31" height="31" viewBox="0 0 31 31" fill="none" xmlns="http://www.w3.org/2000/svg">
<path d="M19.685 2.58337H14.6553C12.3767 2.58337 10.571 2.58337 9.15921 2.77454C7.70479 2.97087 6.52808 3.38421 5.60067 4.3155C4.67196 5.24679 4.25992 6.42867 4.06488 7.88825C3.875 9.3065 3.875 11.1187 3.875 13.4062V20.947C3.875 22.8948 5.06333 24.5637 6.75154 25.2637C6.665 24.0883 6.665 22.4415 6.665 21.0697V14.5985C6.665 12.9438 6.665 11.5165 6.81742 10.3747C6.98146 9.15021 7.35088 7.97737 8.29896 7.02542C9.24704 6.07346 10.416 5.70275 11.6353 5.53742C12.772 5.385 14.1928 5.385 15.8423 5.385H19.8077C21.4559 5.385 22.8741 5.385 24.0121 5.53742C23.6711 4.66731 23.0759 3.92011 22.304 3.39319C21.5322 2.86627 20.6195 2.58408 19.685 2.58337Z" fill="#1B3353"/>
<path d="M8.52499 14.7212C8.52499 11.2001 8.52499 9.43955 9.61516 8.34551C10.704 7.25146 12.4568 7.25146 15.965 7.25146H19.685C23.1919 7.25146 24.946 7.25146 26.0361 8.34551C27.125 9.43955 27.125 11.2001 27.125 14.7212V20.947C27.125 24.4681 27.125 26.2286 26.0361 27.3227C24.946 28.4167 23.1919 28.4167 19.685 28.4167H15.965C12.4581 28.4167 10.704 28.4167 9.61516 27.3227C8.52499 26.2286 8.52499 24.4681 8.52499 20.947V14.7212Z" fill="#1B3353"/>
</svg>
