<svg width="14" height="21" viewBox="0 0 14 21" fill="none" xmlns="http://www.w3.org/2000/svg">
<path d="M7 9.97559C6.33696 9.97559 5.70107 9.71219 5.23223 9.24335C4.76339 8.77451 4.5 8.13863 4.5 7.47559C4.5 6.81254 4.76339 6.17666 5.23223 5.70782C5.70107 5.23898 6.33696 4.97559 7 4.97559C7.66304 4.97559 8.29893 5.23898 8.76777 5.70782C9.23661 6.17666 9.5 6.81254 9.5 7.47559C9.5 7.80389 9.43534 8.12898 9.3097 8.43229C9.18406 8.73561 8.99991 9.01121 8.76777 9.24335C8.53562 9.4755 8.26002 9.65965 7.95671 9.78528C7.65339 9.91092 7.3283 9.97559 7 9.97559ZM7 0.475586C5.14348 0.475586 3.36301 1.21308 2.05025 2.52584C0.737498 3.83859 0 5.61907 0 7.47559C0 12.7256 7 20.4756 7 20.4756C7 20.4756 14 12.7256 14 7.47559C14 5.61907 13.2625 3.83859 11.9497 2.52584C10.637 1.21308 8.85652 0.475586 7 0.475586Z" fill="white"/>
</svg>
