<svg width="20" height="17" viewBox="0 0 20 17" fill="none" xmlns="http://www.w3.org/2000/svg">
<path d="M2 16.4756C1.45 16.4756 0.979002 16.2796 0.587002 15.8876C0.195002 15.4956 -0.000664969 15.0249 1.69779e-06 14.4756V2.47559C1.69779e-06 1.92559 0.196002 1.45459 0.588002 1.06259C0.980002 0.670588 1.45067 0.474921 2 0.475588H18C18.55 0.475588 19.021 0.671587 19.413 1.06359C19.805 1.45559 20.0007 1.92625 20 2.47559V14.4756C20 15.0256 19.804 15.4966 19.412 15.8886C19.02 16.2806 18.5493 16.4763 18 16.4756H2ZM10 9.47559L18 4.47559V2.47559L10 7.47559L2 2.47559V4.47559L10 9.47559Z" fill="white"/>
</svg>
